<svg xmlns="http://www.w3.org/2000/svg" version="1.1" xmlns:xlink="http://www.w3.org/1999/xlink" xmlns:svgjs="http://svgjs.dev/svgjs" width="1500" height="409" viewBox="0 0 1500 409"><g transform="matrix(1,0,0,1,7.656120319226488,-0.8411969921796185)"><svg viewBox="0 0 396 108" data-background-color="#edeae0" preserveAspectRatio="xMidYMid meet" height="409" width="1500" xmlns="http://www.w3.org/2000/svg" xmlns:xlink="http://www.w3.org/1999/xlink"><g id="tight-bounds" transform="matrix(1,0,0,1,0.2400000000000091,0.2221253671281147)"><svg viewBox="0 0 395.52 107.55574926574376" height="107.55574926574376" width="395.52"><g><svg viewBox="0 0 600.2177948253131 163.2202534513274" height="107.55574926574376" width="395.52"><g><rect width="6.781956545141159" height="163.2202534513274" x="180.16202533477625" y="0" fill="#ffffff" opacity="1" stroke-width="0" stroke="transparent" fill-opacity="1" class="rect-yte-0" data-fill-palette-color="primary" rx="1%" id="yte-0" data-palette-color="#ffffff"></rect></g><g transform="matrix(1,0,0,1,204.6977948253131,0.4060205309734357)"><svg viewBox="0 0 395.52 162.40821238938054" height="162.40821238938054" width="395.52"><g id="textblocktransform"><svg viewBox="0 0 395.52 162.40821238938054" height="162.40821238938054" width="395.52" id="textblock"><g><svg viewBox="0 0 395.52 162.40821238938054" height="162.40821238938054" width="395.52"><g transform="matrix(1,0,0,1,0,0)"><svg width="395.52" viewBox="4.5 -37 197.74999999999997 78.2" height="162.40821238938054" data-palette-color="#ffffff"><svg></svg><svg></svg><g class="wordmark-text-0" data-fill-palette-color="primary" id="text-0"><path d="M25.5 0h-21v-35h21v4.1h-16.25v10.65h14v4h-14v12.15h16.25zM40.6 0.6v0c-2.133 0-4.083-0.55-5.85-1.65-1.767-1.1-3.167-2.66-4.2-4.68-1.033-2.013-1.55-4.387-1.55-7.12v0c0-2.633 0.523-4.983 1.57-7.05 1.053-2.067 2.453-3.7 4.2-4.9 1.753-1.2 3.68-1.8 5.78-1.8v0c1.733 0 3.227 0.35 4.48 1.05 1.247 0.7 2.22 1.417 2.92 2.15v0-13.6h4.5v30.7c0 1.267 0.31 2.09 0.93 2.47 0.613 0.387 1.287 0.58 2.02 0.58v0l-0.95 3.5c-3.167 0-5.1-1.267-5.8-3.8v0c-0.733 1.033-1.757 1.983-3.07 2.85-1.32 0.867-2.98 1.3-4.98 1.3zM41.6-3.4v0c1.233 0 2.41-0.293 3.53-0.88 1.113-0.58 2.053-1.337 2.82-2.27v0-12.9c-0.633-0.8-1.517-1.543-2.65-2.23-1.133-0.68-2.383-1.02-3.75-1.02v0c-1.6 0-3 0.433-4.2 1.3-1.2 0.867-2.123 2.023-2.77 3.47-0.653 1.453-0.98 3.097-0.98 4.93v0c0 1.833 0.35 3.473 1.05 4.92 0.7 1.453 1.657 2.597 2.87 3.43 1.22 0.833 2.58 1.25 4.08 1.25zM71.3 0.6v0c-3.733 0-6.69-1.193-8.87-3.58-2.187-2.38-3.28-5.72-3.28-10.02v0c0-2.6 0.493-4.927 1.48-6.98 0.98-2.047 2.353-3.663 4.12-4.85 1.767-1.18 3.817-1.77 6.15-1.77v0c2.5 0 4.577 0.54 6.23 1.62 1.647 1.087 2.887 2.547 3.72 4.38 0.833 1.833 1.25 3.85 1.25 6.05v0c0 1.167-0.05 2.3-0.15 3.4v0h-18.2c0.3 2.433 1.15 4.333 2.55 5.7 1.4 1.367 3.25 2.05 5.55 2.05v0c1.5 0 2.85-0.16 4.05-0.48 1.2-0.313 2.35-0.72 3.45-1.22v0l1.05 3.85c-1.2 0.533-2.55 0.977-4.05 1.33-1.5 0.347-3.183 0.52-5.05 0.52zM63.7-14.8v0h14.25c0-2.533-0.633-4.483-1.9-5.85-1.267-1.367-3.017-2.05-5.25-2.05v0c-1.933 0-3.533 0.673-4.8 2.02-1.267 1.353-2.033 3.313-2.3 5.88zM92.6 0h-4.5v-26h4.35v4.35c0.933-1.4 2.127-2.577 3.58-3.53 1.447-0.947 3.17-1.42 5.17-1.42v0c2.933 0 5.127 0.883 6.58 2.65 1.447 1.767 2.17 4.1 2.17 7v0 16.95h-4.5v-16.45c0-1.867-0.44-3.367-1.32-4.5-0.887-1.133-2.113-1.7-3.68-1.7v0c-1.533 0-2.983 0.54-4.35 1.62-1.367 1.087-2.533 2.363-3.5 3.83v0z" fill="#ffffff" fill-rule="nonzero" stroke="none" stroke-width="1" stroke-linecap="butt" stroke-linejoin="miter" stroke-miterlimit="10" stroke-dasharray="" stroke-dashoffset="0" font-family="none" font-weight="none" font-size="none" text-anchor="none" style="mix-blend-mode: normal" data-fill-palette-color="primary" opacity="1"></path><path transform="translate(0,40.6)" d="M9.25 0h-4.75v-35h4.75zM22.25 0h-4.5v-26h4.35v4.35c0.933-1.4 2.127-2.577 3.58-3.53 1.447-0.947 3.17-1.42 5.17-1.42v0c2.933 0 5.123 0.883 6.57 2.65 1.453 1.767 2.18 4.1 2.18 7v0 16.95h-4.5v-16.45c0-1.867-0.44-3.367-1.32-4.5-0.887-1.133-2.113-1.7-3.68-1.7v0c-1.533 0-2.983 0.54-4.35 1.62-1.367 1.087-2.533 2.363-3.5 3.83v0zM51.85 0h-4.5v-26h4.5zM49.6-30.45v0c-0.867 0-1.607-0.317-2.22-0.95-0.62-0.633-0.93-1.367-0.93-2.2v0c0-0.967 0.283-1.733 0.85-2.3 0.567-0.567 1.333-0.85 2.3-0.85v0c0.867 0 1.61 0.307 2.23 0.92 0.613 0.62 0.92 1.363 0.92 2.23v0c0 0.933-0.283 1.69-0.85 2.27-0.567 0.587-1.333 0.88-2.3 0.88zM68.95 0.6v0c-2.5 0-4.473-0.827-5.92-2.48-1.453-1.647-2.18-4.003-2.18-7.07v0-12.2h-4.5v-3.9h4.6l0.95-8.2h3.45v8.2h7.2v3.9h-7.2v12.55c0 1.933 0.41 3.283 1.23 4.05 0.813 0.767 1.787 1.15 2.92 1.15v0c0.833 0 1.627-0.133 2.38-0.4 0.747-0.267 1.437-0.583 2.07-0.95v0l1.25 3.6c-0.667 0.4-1.567 0.793-2.7 1.18-1.133 0.38-2.317 0.57-3.55 0.57zM84.2 0h-4.5v-26h4.5zM81.95-30.45v0c-0.867 0-1.607-0.317-2.22-0.95-0.62-0.633-0.93-1.367-0.93-2.2v0c0-0.967 0.283-1.733 0.85-2.3 0.567-0.567 1.333-0.85 2.3-0.85v0c0.867 0 1.607 0.307 2.22 0.92 0.62 0.62 0.93 1.363 0.93 2.23v0c0 0.933-0.283 1.69-0.85 2.27-0.567 0.587-1.333 0.88-2.3 0.88zM102.15 0.6v0c-2.167 0-4.133-0.55-5.9-1.65-1.767-1.1-3.173-2.66-4.22-4.68-1.053-2.013-1.58-4.387-1.58-7.12v0c0-2.6 0.527-4.933 1.58-7 1.047-2.067 2.497-3.71 4.35-4.93 1.847-1.213 3.97-1.82 6.37-1.82v0c1.5 0 2.86 0.257 4.08 0.77 1.213 0.52 2.27 1.163 3.17 1.93v0-2.1h4.1v19.7c0 1.267 0.31 2.09 0.93 2.47 0.613 0.387 1.287 0.58 2.02 0.58v0l-0.95 3.5c-3.2 0-5.133-1.3-5.8-3.9v0c-0.767 1.067-1.807 2.04-3.12 2.92-1.32 0.887-2.997 1.33-5.03 1.33zM103.15-3.4v0c1.267 0 2.467-0.31 3.6-0.93 1.133-0.613 2.083-1.387 2.85-2.32v0-13.95c-0.9-0.633-1.89-1.143-2.97-1.53-1.087-0.38-2.23-0.57-3.43-0.57v0c-1.6 0-3.007 0.407-4.22 1.22-1.22 0.82-2.18 1.957-2.88 3.41-0.7 1.447-1.05 3.137-1.05 5.07v0c0 1.867 0.35 3.523 1.05 4.97 0.7 1.453 1.667 2.587 2.9 3.4 1.233 0.82 2.617 1.23 4.15 1.23zM132.15 0.6v0c-2.5 0-4.473-0.827-5.92-2.48-1.453-1.647-2.18-4.003-2.18-7.07v0-12.2h-4.5v-3.9h4.6l0.95-8.2h3.45v8.2h7.2v3.9h-7.2v12.55c0 1.933 0.41 3.283 1.23 4.05 0.813 0.767 1.787 1.15 2.92 1.15v0c0.833 0 1.627-0.133 2.38-0.4 0.747-0.267 1.437-0.583 2.07-0.95v0l1.25 3.6c-0.667 0.4-1.567 0.793-2.7 1.18-1.133 0.38-2.317 0.57-3.55 0.57zM147.4 0h-4.5v-26h4.5zM145.15-30.45v0c-0.867 0-1.607-0.317-2.22-0.95-0.62-0.633-0.93-1.367-0.93-2.2v0c0-0.967 0.283-1.733 0.85-2.3 0.567-0.567 1.333-0.85 2.3-0.85v0c0.867 0 1.61 0.307 2.23 0.92 0.613 0.62 0.92 1.363 0.92 2.23v0c0 0.933-0.283 1.69-0.85 2.27-0.567 0.587-1.333 0.88-2.3 0.88zM167.05 0h-4.7l-10.45-24.8 4.1-1.7 8.85 21.4 8.85-21.4 3.85 1.7zM191.45 0.6v0c-3.733 0-6.69-1.193-8.87-3.58-2.187-2.38-3.28-5.72-3.28-10.02v0c0-2.6 0.493-4.927 1.48-6.98 0.98-2.047 2.353-3.663 4.12-4.85 1.767-1.18 3.817-1.77 6.15-1.77v0c2.5 0 4.577 0.54 6.23 1.62 1.647 1.087 2.887 2.547 3.72 4.38 0.833 1.833 1.25 3.85 1.25 6.05v0c0 1.167-0.05 2.3-0.15 3.4v0h-18.2c0.3 2.433 1.15 4.333 2.55 5.7 1.4 1.367 3.25 2.05 5.55 2.05v0c1.5 0 2.85-0.16 4.05-0.48 1.2-0.313 2.35-0.72 3.45-1.22v0l1.05 3.85c-1.2 0.533-2.55 0.977-4.05 1.33-1.5 0.347-3.183 0.52-5.05 0.52zM183.85-14.8v0h14.25c0-2.533-0.633-4.483-1.9-5.85-1.267-1.367-3.017-2.05-5.25-2.05v0c-1.933 0-3.533 0.673-4.8 2.02-1.267 1.353-2.033 3.313-2.3 5.88z" fill="#ffffff" fill-rule="nonzero" stroke="none" stroke-width="1" stroke-linecap="butt" stroke-linejoin="miter" stroke-miterlimit="10" stroke-dasharray="" stroke-dashoffset="0" font-family="none" font-weight="none" font-size="none" text-anchor="none" style="mix-blend-mode: normal" data-fill-palette-color="primary" opacity="1"></path></g></svg></g></svg></g></svg></g></svg></g><g transform="matrix(1,0,0,1,0,0.4060205309734357)"><svg viewBox="0 0 162.40821238938054 162.40821238938054" height="162.40821238938054" width="162.40821238938054"><g><svg xmlns="http://www.w3.org/2000/svg" xmlns:xlink="http://www.w3.org/1999/xlink" version="1.1" x="0" y="0" viewBox="0 0 100 100" enable-background="new 0 0 100 100" xml:space="preserve" height="162.40821238938054" width="162.40821238938054" class="icon-icon-0" data-fill-palette-color="accent" id="icon-0"><polygon fill-rule="evenodd" clip-rule="evenodd" points="42.023,38.316 41.349,37.191 40.562,34.943 41.124,34.27   40.786,32.697 38.764,34.27 39.214,35.619 39.775,37.752 38.764,37.752 38.764,38.763 39.888,39.438 " fill="#ffffff" data-fill-palette-color="accent"></polygon><polygon fill-rule="evenodd" clip-rule="evenodd" points="35.955,36.741 36.293,38.316 37.978,37.529 38.426,36.18   37.753,35.507 " fill="#ffffff" data-fill-palette-color="accent"></polygon><polygon fill-rule="evenodd" clip-rule="evenodd" points="38.09,27.866 38.426,26.967 37.529,26.068 35.73,25.957   35.843,27.303 " fill="#ffffff" data-fill-palette-color="accent"></polygon><polygon fill-rule="evenodd" clip-rule="evenodd" points="50.338,18.989 50.899,19.212 51.011,18.316   50.338,17.978 50.785,16.855 48.764,17.978 49.55,19.662 " fill="#ffffff" data-fill-palette-color="accent"></polygon><polygon fill-rule="evenodd" clip-rule="evenodd" points="55.28,15.73 54.158,15.169 53.37,15.957 54.831,16.18 " fill="#ffffff" data-fill-palette-color="accent"></polygon><path fill-rule="evenodd" clip-rule="evenodd" d="M50 0C22.386 0 0 22.386 0 50S22.386 100 50 100 100 77.614 100 50 77.614 0 50 0M6.91 50A42.9 42.9 0 0 1 14.613 25.425L15.169 25.842 14.833 27.191 16.068 27.529 15.843 25.731 16.854 25.619V23.259H17.865L18.652 25.281 19.775 26.518S18.427 26.853 17.978 26.853 17.753 28.651 17.753 28.651L19.325 29.212 20.341 27.336 22.696 24.719 23.819 21.237 25.954 19.213 24.718 18.317 26.067 17.418 26.179 16.181 22.247 17.304 22.123 17.156A43 43 0 0 1 29.054 12.346L30.898 13.149 29.663 15.509H27.19L26.74 17.642H28.763L31.684 15.844 33.707 13.823 34.043 11.913 31.122 11.689 33.144 10.34 35.054 10.678 34.718 12.699 37.302 11.124 37.752 12.361 38.314 14.159 36.853 15.957 35.28 17.417 32.92 17.079 34.044 19.438 31.909 19.101 28.314 22.809 29.213 24.046 32.134 23.82 34.606 23.032 37.753 22.697 39.213 22.36S39.213 21.461 39.1 20.9C38.989 20.338 40.224 21.011 40.224 21.011L41.573 20.226 42.584 17.079 46.291 15.392 45.73 14.495 46.629 13.37 43.708 12.92 44.494 11.797 40.786 10.56H38.876L39.55 8.876 40.336 8.088 40.273 8.025A43.2 43.2 0 0 1 50 6.91 43 43 0 0 1 64.841 9.535L64.729 9.8 62.858 9.675V10.8L63.607 11.299V12.297L64.23 13.17 61.985 11.798 60.488 12.547 61.237 14.296 61.611 16.292 62.609 17.417 64.979 17.791 64.48 18.789 63.981 20.289 66.104 21.661 65.979 22.285 61.985 18.914 61.736 20.164 63.482 21.911 64.48 22.285 62.235 22.784 61.985 23.909 60.364 22.284 59.363 20.163 58.989 18.04 57.988 19.288 58.739 22.284 59.987 23.16 59.488 26.029 58.739 25.654 58.864 27.154 57.739 27.029 56.616 25.404H55.244L53.246 25.154 51.247 25.279 49.376 26.779 48.127 28.9 45.505 30.898 45.255 32.021V33.396L45.879 34.768 47.128 33.77 47.502 34.518 48.127 35.641 48.252 35.893 48.876 36.642 50 35.894 49.875 33.147 51.247 31.398S51.317 31.102 51.395 30.761C51.501 30.306 51.622 29.776 51.622 29.776L52.12 28.401 52.996 28.526 52.747 29.651 52.245 32.146 54.62 31.896 55.494 32.146 53.62 32.647 53.869 33.895 51.746 35.267 51.871 36.642 50 37.142 49.626 38.14 48.127 37.641H47.128V35.518L46.004 35.895V37.018L42.883 39.516 41.135 40.14 40.386 41.013 37.888 40.389 37.763 41.512 39.386 42.138 39.261 44.383 34.766 44.258 34.142 45.256 33.518 47.005 32.768 48.505 33.892 49.753 35.141 51.25 39.139 50 39.389 48.503 40.264 47.752 41.762 47.253 41.637 46.255 43.011 45.88 45.008 45.506 46.257 47.003 48.504 48.628 49.503 50.249V50.998L50.75 50.249 50.127 49.127 50.376 47.877 49.253 47.378 48.254 46.006 48.878 44.007 50 45.631 51.622 46.879 52.245 49.127 53.869 50.374 54.246 51.749 54.995 50.125 54.745 49.376 55.119 48.752 57.489 46.754 57.988 44.256 58.989 43.507 60.236 43.632 62.11 41.758 62.235 43.258 64.979 44.131V45.506H62.734L59.363 47.252 56.616 48.752 57.365 50.374 59.862 50.873 61.237 51.497 62.734 50.499 62.858 54.745 58.612 55.618 54.122 54.368 52.373 55.743 53.121 56.491 51.746 56.242 47.378 54.618 46.13 54.745 45.131 53.121V51.123H42.883L41.635 50.873 37.639 51.749 34.518 51.497 33.145 52.248 32.271 52.373 31.771 53.994 28.9 55.993 24.904 58.989 24.654 62.858 23.53 65.356 23.655 66.852 24.654 68.601 27.526 73.469 30.522 74.843 35.516 75.218 35.266 73.094 34.142 72.471 34.641 71.348 35.516 72.346 36.389 74.968 40.135 75.218 41.633 76.714 43.755 77.59 44.005 81.21 46.253 84.082 48.375 87.826 46.503 90.074 48.415 93.049C25.354 92.215 6.91 73.266 6.91 50M64.765 90.492L69.974 86.705 68.103 82.084 74.096 74.221 75.967 69.226 76.84 66.479 73.722 67.979 71.848 68.353 67.23 65.481 65.856 62.36 64.107 60.611 61.861 55.619 63.732 57.116 67.23 60.986 68.478 62.735 70.972 63.982 71.723 67.228 74.72 65.232 78.34 60.736 80.088 56.118 78.714 54.996 77.965 53.621 77.09 55.245 75.343 57.241 72.846 54.494 72.098 52.374 73.846 52.748 75.593 53.621 78.09 52.748 79.59 53.247 83.581 50.5 85.832 51.75 87.204 50.999 90.189 55.699 91.668 54.289 91.697 52.498 91.821 47.129 92.739 44.585C92.962 46.36 93.09 48.165 93.09 50.001 93.09 68.61 81.291 84.465 64.765 90.492" fill="#ffffff" data-fill-palette-color="accent"></path></svg></g></svg></g></svg></g><defs></defs></svg><rect width="395.52" height="107.55574926574376" fill="none" stroke="none" visibility="hidden"></rect></g></svg></g></svg>